<?xml version="1.0" encoding="utf-8"?>
<!-- Generator: Adobe Illustrator 15.0.0, SVG Export Plug-In . SVG Version: 6.00 Build 0)  -->
<!DOCTYPE svg PUBLIC "-//W3C//DTD SVG 1.1//EN" "http://www.w3.org/Graphics/SVG/1.1/DTD/svg11.dtd">
<svg version="1.1" id="Layer_1" xmlns="http://www.w3.org/2000/svg" xmlns:xlink="http://www.w3.org/1999/xlink" x="0px" y="0px"
	 width="212px" height="243.457px" viewBox="0 0 212 243.457" enable-background="new 0 0 212 243.457" xml:space="preserve">
<g>
	<polygon fill="#FFFFFF" points="3,182.159 3,63.032 106,3.466 209,63.032 209,182.159 106,241.728 	"/>
	<g>
		<path fill="#F5104F" d="M106,6.931l100,57.831v115.666l-100,57.834L6,180.428V64.762L106,6.931 M106.094,0l-3.004,1.737
			L3.043,59.568L0,61.301v3.461v115.666v3.461l3.043,1.733l100.023,57.834l3.016,1.736l3.01-1.736l99.956-57.834l2.952-1.733v-3.461
			V64.762v-3.461l-2.949-1.732L109.074,1.737L106.094,0L106.094,0z"/>
	</g>
</g>
</svg>
